<svg width="25" height="25" viewBox="0 0 25 25" fill="none" xmlns="http://www.w3.org/2000/svg">
<path d="M3.95312 5.26758C3.95312 4.16301 4.84856 3.26758 5.95312 3.26758H9.23237C9.6628 3.26758 10.0449 3.54301 10.181 3.95135L11.6789 8.44479C11.8362 8.9169 11.6225 9.43289 11.1774 9.65544L8.92013 10.7841C10.0224 13.2288 11.9919 15.1983 14.4366 16.3006L15.5653 14.0433C15.7878 13.5982 16.3038 13.3845 16.7759 13.5418L21.2694 15.0397C21.6777 15.1758 21.9531 15.5579 21.9531 15.9883V19.2676C21.9531 20.3721 21.0577 21.2676 19.9531 21.2676H18.9531C10.6689 21.2676 3.95312 14.5518 3.95312 6.26758V5.26758Z" stroke="white" stroke-width="2" stroke-linecap="round" stroke-linejoin="round"/>
</svg>
